# xmcd CD database file
#
# Track frame offsets:
#    150
#    7938
#    19009
#    32419
#    47640
#    60291
#    72546
#    86498
#    97269
#    109625
#    124250
#    137273
#    149741
#    162539
#    176524
#    190430
#    204269
#    218663
#    231568
#    244853
#    261922
#    272396
#    284693
#    297199
#    309581
#
# Disc length: 4307 seconds
#
# Submitted via: cddb-tool 0.4.7
#
#blues,classical,country,data,folk,jazz,newage,reggae,rock,soundtrack,misc
#CATEGORY=blues
# Revision: 0
# Processed by: cddbd v1.5.2PL0 Copyright (c) Steve Scherf et al.
#
DISCID=7310d119
DTITLE=Various Artist - Acoustic Blues Cd 1
DYEAR=2012
DGENRE=Blues
TTITLE0=Big Joe Williams - Baby Please Don't Go
TTITLE1=John Lee Hooker - I Need Some Money
TTITLE2=Lightnin' Hopkins - Give Me Central 209
TTITLE3=Arthur 'Big Boy' Crudup - Black Pony Blues
TTITLE4=Tommy McClennan - Bottle It Up And Go
TTITLE5=Menphis Slim - Walkin' Alone
TTITLE6=Sleeepy John Estes - Rats In My Kitchen
TTITLE7=Jimmy Witherspoon - Ain't Nobody's Bussiness
TTITLE8=Big Bill Broonzy - Mississippi River Blues
TTITLE9=Sonny Terry and Brownie McGhee - Careless Love
TTITLE10=Blind Willie McTell - She Don't Treat Me No Good No More
TTITLE11=Smokey Hogg - Goin' Back To Chicago
TTITLE12=Robert Henry - Something's Wrong With My Little Machine
TTITLE13=Tommy McClennan - I Love My Baby
TTITLE14=Mississippi John Hurt - Blue Harvest Blues
TTITLE15=Roosevelt Sykes - All My Money Gone
TTITLE16=Barbecue Bob - Barbecue Blues
TTITLE17=Floyd Council - Runaway Man Blues
TTITLE18=Slim Pickens - Notoriety Woman
TTITLE19=Pink Anderson - Thousand Woman Blues
TTITLE20=Jim DeBerry - Take A Little Chance
TTITLE21=Sonny Terry - Runaway Woman
TTITLE22=Smokey Hogg - Why Should I Worry?
TTITLE23=Doctor Ross - Terra Mae (Taylor Mae)
TTITLE24=Robert Johnson - I Believe I'll Dust My Broom
EXTD=50 Raw Blues Classics On 2 CDs
EXTT0=
EXTT1=
EXTT2=
EXTT3=
EXTT4=
EXTT5=
EXTT6=
EXTT7=
EXTT8=
EXTT9=
EXTT10=
EXTT11=
EXTT12=
EXTT13=
EXTT14=
EXTT15=
EXTT16=
EXTT17=
EXTT18=
EXTT19=
EXTT20=
EXTT21=
EXTT22=
EXTT23=
EXTT24=
PLAYORDER=
